<?xml version="1.0" standalone="no"?><!DOCTYPE svg PUBLIC "-//W3C//DTD SVG 1.1//EN" "http://www.w3.org/Graphics/SVG/1.1/DTD/svg11.dtd"><svg t="1668259914172" class="icon" viewBox="0 0 1603 1024" version="1.1" xmlns="http://www.w3.org/2000/svg" p-id="6212" xmlns:xlink="http://www.w3.org/1999/xlink" width="313.0859375" height="200"><path d="M932.193103 721.390345c-25.070345 0-49.787586-5.649655-72.033103-16.948966-27.188966 11.29931-56.143448 16.948966-85.804138 16.948966-39.194483 0-77.329655-9.886897-110.874483-28.954483-26.835862 18.714483-59.321379 28.954483-92.513103 28.954483-88.982069 0-161.368276-72.386207-161.368276-161.368276s72.386207-161.368276 161.368276-161.368276c3.177931 0 6.002759 0 9.886896 0.353104h1.765518c10.946207 1.05931 21.892414 2.824828 32.485517 6.002758l1.05931 0.353104c43.078621 13.417931 72.033103 52.612414 72.033104 97.809655 0 36.722759-20.126897 70.973793-52.259311 89.335172l-1.412413 0.706207c-10.946207 6.002759-23.657931 9.18069-36.016552 9.18069-42.372414 0-76.623448-34.251034-76.623448-76.623449 0-9.886897 7.768276-17.655172 17.655172-17.655172s17.655172 7.768276 17.655172 17.655172c0 22.598621 18.361379 41.313103 41.313104 41.313104 7.062069 0 13.417931-1.765517 19.773793-4.943448l1.05931-0.353104c20.833103-12.005517 33.544828-34.251034 33.544828-58.262069 0-29.66069-19.067586-55.437241-47.315862-63.911724l-0.706207-0.353103c-7.768276-2.471724-15.889655-3.884138-24.011035-4.590345H579.795862c-3.177931-0.353103-5.649655-0.353103-8.121379-0.353104-69.561379 0-126.057931 56.496552-126.057931 126.057931 0 69.561379 56.496552 126.057931 126.057931 126.057931 29.307586 0 57.555862-10.24 80.154483-28.601379l9.886896-8.121379 10.946207 6.708965c30.72 19.42069 66.030345 30.013793 102.753103 30.013793 27.542069 0 54.024828-5.649655 79.095173-16.948965l8.121379-3.884138 7.768276 4.237241c19.067586 10.593103 40.606897 16.595862 62.852414 16.595862 35.310345 0 67.795862-14.124138 92.513103-39.547586l6.708966-6.708965 9.180689 1.765517c4.943448 1.05931 10.24 1.412414 15.183449 1.412414 46.609655 0 84.744828-38.135172 84.744827-84.744828s-38.135172-84.744828-84.744827-84.744827c-4.943448 0-10.24 0.353103-15.183449 1.412413l-9.180689 1.765518-6.708966-6.708966c-16.595862-17.302069-37.428966-29.66069-60.380689-35.310345l-8.827587-2.11862-3.177931-8.474483c-29.307586-73.092414-99.222069-120.408276-177.611034-120.408276-54.377931 0-106.284138 23.304828-142.653793 63.558621-6.355862 7.415172-17.655172 7.768276-25.070345 1.412413-7.415172-6.355862-7.768276-17.655172-1.412414-25.070344C649.710345 295.90069 711.150345 268.358621 775.415172 268.358621c90.394483 0 170.548966 52.612414 207.271725 134.532413 22.951724 7.415172 44.137931 19.773793 61.793103 36.369656 4.237241-0.353103 8.121379-0.706207 12.005517-0.706207 66.383448 0 120.055172 54.024828 120.055173 120.055172 0 66.383448-54.024828 120.055172-120.055173 120.055173-3.884138 0-8.121379-0.353103-12.005517-0.706207-31.426207 27.895172-70.267586 43.431724-112.286897 43.431724z" p-id="6213"></path></svg>