<?xml version="1.0" standalone="no"?><!DOCTYPE svg PUBLIC "-//W3C//DTD SVG 1.1//EN" "http://www.w3.org/Graphics/SVG/1.1/DTD/svg11.dtd"><svg t="1668247216621" class="icon" viewBox="0 0 1024 1024" version="1.1" xmlns="http://www.w3.org/2000/svg" p-id="2703" width="200" height="200" xmlns:xlink="http://www.w3.org/1999/xlink"><path d="M512 1024c141.386 0 256-114.614 256-256s-114.614-256-256-256-256-114.614-256-256S370.614 0 512 0c282.77 0 512 229.23 512 512S794.77 1024 512 1024z" fill="#EDEDEE" p-id="2704"></path><path d="M512 0c-141.386 0-256 114.614-256 256s114.614 256 256 256 256 114.614 256 256-114.614 256-256 256C229.23 1024 0 794.77 0 512S229.23 0 512 0z" fill="#504B5A" p-id="2705"></path><path d="M512 768m-91.428 0a91.428 91.428 0 1 0 182.856 0 91.428 91.428 0 1 0-182.856 0Z" fill="#EDEDEE" p-id="2706"></path><path d="M512 256m-91.428 0a91.428 91.428 0 1 0 182.856 0 91.428 91.428 0 1 0-182.856 0Z" fill="#504B5A" p-id="2707"></path></svg>